<?xml version="1.0" encoding="UTF-8"?>
<!DOCTYPE svg PUBLIC "-//W3C//DTD SVG 1.1//EN" "http://www.w3.org/Graphics/SVG/1.1/DTD/svg11.dtd">
<!-- Creator: CorelDRAW -->
<svg xmlns="http://www.w3.org/2000/svg" xml:space="preserve" width="9.82232in" height="9.88047in" version="1.1" style="shape-rendering:geometricPrecision; text-rendering:geometricPrecision; image-rendering:optimizeQuality; fill-rule:evenodd; clip-rule:evenodd"
viewBox="0 0 18883.31 18995.11"
 xmlns:xlink="http://www.w3.org/1999/xlink"
 xmlns:xodm="http://www.corel.com/coreldraw/odm/2003">
 <defs>
  <style type="text/css">
   <![CDATA[
    .str0 {stroke:black;stroke-width:106.8;stroke-miterlimit:2.61313}
    .str1 {stroke:black;stroke-width:106.8;stroke-miterlimit:2.50784}
    .fil0 {fill:none}
   ]]>
  </style>
 </defs>
 <g id="Layer_x0020_1">
  <metadata id="CorelCorpID_0Corel-Layer"/>
  <circle class="fil0 str0" cx="9432.47" cy="9432.47" r="9379.06"/>
  <g id="_2154508669472">
   <path class="fil0 str1" d="M9935.98 179.75c-308.68,454.52 -821.55,1394.3 -1229.41,2433.18 4541.63,-759.04 9257.89,3012.95 9964.3,5314.23 -82.3,-2490.08 -2977.26,-7465.27 -8734.89,-7747.41z"/>
   <path class="fil0 str1" d="M8706.57 2612.94c-373.35,1055.65 -591.92,2081.6 -479.17,3112.34 5360.3,52.13 8538.94,2204.12 10411.01,5613.69 218.91,-1190.69 282.45,-2396.33 18.29,-3633.57 -2504.41,-3596.16 -5764.87,-5425.13 -9950.13,-5092.46z"/>
   <path class="fil0 str1" d="M8227.4 5725.28c17.05,1610.8 366.54,2952.51 1299.29,3822.06 3335.53,-250.38 5904.66,1534.96 7844.95,4990.65 571.7,-810.66 972.28,-1914.07 1266.77,-3199.02 -1924.02,-3597.29 -5343.49,-5525.3 -10411.01,-5613.69z"/>
  </g>
  <g id="_2154508671008">
   <path class="fil0 str1" d="M1115.25 13761.8c547.97,40.07 1618.28,14.33 2721.91,-151.89 -2928.16,-3553.64 -2019.65,-9524.05 -379.89,-11286.45 -2115.32,1316.32 -4976.49,6311.02 -2342.02,11438.35z"/>
   <path class="fil0 str1" d="M3837.15 13609.91c1100.9,-204.5 2098.69,-528.18 2934.95,-1141.2 -2634.99,-4668.21 -2360.64,-8497 -343.91,-11823.04 -1140.63,405.76 -2216.51,953.56 -3155.92,1800.95 -1862.16,3966.96 -1815.86,7705.09 564.87,11163.29z"/>
   <path class="fil0 str1" d="M6772.11 12468.71c1386.48,-820.16 2373.68,-1793.68 2660.36,-3036.24 -1884.6,-2763.47 -1623.01,-5881.06 399.55,-9289.26 -987.9,-89.77 -2143.77,115.02 -3403.82,502.46 -2153.33,3464.89 -2113.3,7390.25 343.91,11823.04z"/>
  </g>
  <g id="_2154508669040">
   <path class="fil0 str1" d="M17363.76 14610.83c-239.28,-494.59 -796.73,-1408.63 -1492.5,-2281.29 -1613.46,4312.68 -7238.24,6511.09 -9584.41,5972.22 2197.63,1173.76 7953.74,1154.25 11076.9,-3690.93z"/>
   <path class="fil0 str1" d="M15871.27 12329.53c-727.54,-851.16 -1506.76,-1553.42 -2455.78,-1971.14 -2725.3,4616.08 -6178.29,6292.88 -10067.1,6209.35 921.71,784.93 1934.06,1442.77 3137.62,1832.62 4366.57,-370.8 7580.74,-2279.96 9385.26,-6070.84z"/>
   <path class="fil0 str1" d="M13415.48 10358.39c-1403.52,-790.64 -2740.21,-1158.82 -3959.64,-785.82 -1450.93,3013.84 -4281.64,4346.11 -8244.51,4298.61 416.2,900.44 1171.49,1799.05 2137.05,2696.56 4077.35,132.39 7456.79,-1864.95 10067.1,-6209.35z"/>
  </g>
 </g>
</svg>
